<svg width="57" height="57" viewBox="0 0 57 57" fill="none" xmlns="http://www.w3.org/2000/svg">
<circle cx="28.9004" cy="28.5" r="28" fill="#F4F7FE"/>
<g clip-path="url(#clip0_12_622)">
<path d="M28.5738 27.1397C25.4675 26.3324 24.4686 25.4976 24.4686 24.1977C24.4686 22.7061 25.8507 21.6661 28.1633 21.6661C30.1064 21.6661 31.078 22.4051 31.4338 23.5819C31.598 24.1292 32.0496 24.5398 32.6243 24.5398H33.0348C33.938 24.5398 34.5811 23.6503 34.2664 22.8019C33.6916 21.1872 32.3506 19.8461 30.2159 19.3261V18.3819C30.2159 17.2462 29.2991 16.3293 28.1633 16.3293C27.0275 16.3293 26.1107 17.2462 26.1107 18.3819V19.2851C23.456 19.8598 21.3213 21.584 21.3213 24.225C21.3213 27.386 23.9349 28.9597 27.7528 29.8765C31.1738 30.6976 31.858 31.9018 31.858 33.1744C31.858 34.1186 31.1875 35.6238 28.1633 35.6238C25.9054 35.6238 24.7423 34.8165 24.2907 33.667C24.0855 33.1333 23.6202 32.7502 23.0592 32.7502H22.676C21.7592 32.7502 21.116 33.6807 21.4581 34.5291C22.2381 36.4312 24.0581 37.5533 26.1107 37.9912V38.908C26.1107 40.0438 27.0275 40.9606 28.1633 40.9606C29.2991 40.9606 30.2159 40.0438 30.2159 38.908V38.0185C32.8843 37.5122 35.0053 35.9659 35.0053 33.1607C35.0053 29.2744 31.6801 27.9471 28.5738 27.1397Z" fill="#4318FF"/>
</g>
<defs>
<clipPath id="clip0_12_622">
<rect width="32.8417" height="32.8417" fill="white" transform="translate(12.4268 12.2241)"/>
</clipPath>
</defs>
</svg>
