<svg width="57" height="57" viewBox="0 0 57 57" fill="none" xmlns="http://www.w3.org/2000/svg">
<circle cx="28.7002" cy="28.5" r="28" fill="#F4F7FE"/>
<g clip-path="url(#clip0_12_592)">
<path d="M20.9841 24.8135H21.2578C22.3115 24.8135 23.1736 25.6755 23.1736 26.7292V36.308C23.1736 37.3617 22.3115 38.2238 21.2578 38.2238H20.9841C19.9305 38.2238 19.0684 37.3617 19.0684 36.308V26.7292C19.0684 25.6755 19.9305 24.8135 20.9841 24.8135ZM28.6472 19.0662C29.7008 19.0662 30.5629 19.9283 30.5629 20.9819V36.308C30.5629 37.3617 29.7008 38.2238 28.6472 38.2238C27.5935 38.2238 26.7314 37.3617 26.7314 36.308V20.9819C26.7314 19.9283 27.5935 19.0662 28.6472 19.0662ZM36.3102 30.0134C37.3639 30.0134 38.226 30.8755 38.226 31.9291V36.308C38.226 37.3617 37.3639 38.2238 36.3102 38.2238C35.2566 38.2238 34.3945 37.3617 34.3945 36.308V31.9291C34.3945 30.8755 35.2566 30.0134 36.3102 30.0134Z" fill="#4318FF"/>
</g>
<defs>
<clipPath id="clip0_12_592">
<rect width="32.8417" height="32.8417" fill="white" transform="translate(12.2266 12.2241)"/>
</clipPath>
</defs>
</svg>
