<svg width="57" height="57" viewBox="0 0 57 57" fill="none" xmlns="http://www.w3.org/2000/svg">
<circle cx="28.5" cy="28.5" r="28" fill="#F4F7FE"/>
<g clip-path="url(#clip0_12_612)">
<path d="M20.7839 24.8135H21.0576C22.1113 24.8135 22.9734 25.6755 22.9734 26.7292V36.308C22.9734 37.3617 22.1113 38.2238 21.0576 38.2238H20.7839C19.7303 38.2238 18.8682 37.3617 18.8682 36.308V26.7292C18.8682 25.6755 19.7303 24.8135 20.7839 24.8135ZM28.447 19.0662C29.5007 19.0662 30.3627 19.9283 30.3627 20.9819V36.308C30.3627 37.3617 29.5007 38.2238 28.447 38.2238C27.3933 38.2238 26.5312 37.3617 26.5312 36.308V20.9819C26.5312 19.9283 27.3933 19.0662 28.447 19.0662ZM36.11 30.0134C37.1637 30.0134 38.0258 30.8755 38.0258 31.9291V36.308C38.0258 37.3617 37.1637 38.2238 36.11 38.2238C35.0564 38.2238 34.1943 37.3617 34.1943 36.308V31.9291C34.1943 30.8755 35.0564 30.0134 36.11 30.0134Z" fill="#EE5D50"/>
</g>
<defs>
<clipPath id="clip0_12_612">
<rect width="32.8417" height="32.8417" fill="white" transform="translate(12.0264 12.2241)"/>
</clipPath>
</defs>
</svg>
