<svg width="57" height="57" viewBox="0 0 57 57" fill="none" xmlns="http://www.w3.org/2000/svg">
<circle cx="28.7998" cy="28.5" r="28" fill="#F4F7FE"/>
<g clip-path="url(#clip0_12_632)">
<path d="M28.4732 27.1397C25.367 26.3324 24.368 25.4976 24.368 24.1977C24.368 22.7061 25.7501 21.6661 28.0627 21.6661C30.0058 21.6661 30.9774 22.4051 31.3332 23.5819C31.4974 24.1292 31.949 24.5398 32.5237 24.5398H32.9342C33.8374 24.5398 34.4805 23.6503 34.1658 22.8019C33.5911 21.1872 32.25 19.8461 30.1153 19.3261V18.3819C30.1153 17.2462 29.1985 16.3293 28.0627 16.3293C26.9269 16.3293 26.0101 17.2462 26.0101 18.3819V19.2851C23.3554 19.8598 21.2207 21.584 21.2207 24.225C21.2207 27.386 23.8344 28.9597 27.6522 29.8765C31.0732 30.6976 31.7574 31.9018 31.7574 33.1744C31.7574 34.1186 31.0869 35.6238 28.0627 35.6238C25.8049 35.6238 24.6417 34.8165 24.1901 33.667C23.9849 33.1333 23.5196 32.7502 22.9586 32.7502H22.5754C21.6586 32.7502 21.0154 33.6807 21.3575 34.5291C22.1375 36.4312 23.9575 37.5533 26.0101 37.9912V38.908C26.0101 40.0438 26.9269 40.9606 28.0627 40.9606C29.1985 40.9606 30.1153 40.0438 30.1153 38.908V38.0185C32.7837 37.5122 34.9047 35.9659 34.9047 33.1607C34.9047 29.2744 31.5795 27.9471 28.4732 27.1397Z" fill="#4318FF"/>
</g>
<defs>
<clipPath id="clip0_12_632">
<rect width="32.8417" height="32.8417" fill="white" transform="translate(12.3262 12.2241)"/>
</clipPath>
</defs>
</svg>
