<svg width="57" height="57" viewBox="0 0 57 57" fill="none" xmlns="http://www.w3.org/2000/svg">
<circle cx="28.1001" cy="28.5" r="28" fill="#F4F7FE"/>
<g clip-path="url(#clip0_12_602)">
<path d="M20.384 24.8135H20.6577C21.7114 24.8135 22.5735 25.6755 22.5735 26.7292V36.308C22.5735 37.3617 21.7114 38.2238 20.6577 38.2238H20.384C19.3304 38.2238 18.4683 37.3617 18.4683 36.308V26.7292C18.4683 25.6755 19.3304 24.8135 20.384 24.8135ZM28.0471 19.0662C29.1008 19.0662 29.9628 19.9283 29.9628 20.9819V36.308C29.9628 37.3617 29.1008 38.2238 28.0471 38.2238C26.9934 38.2238 26.1313 37.3617 26.1313 36.308V20.9819C26.1313 19.9283 26.9934 19.0662 28.0471 19.0662ZM35.7101 30.0134C36.7638 30.0134 37.6259 30.8755 37.6259 31.9291V36.308C37.6259 37.3617 36.7638 38.2238 35.7101 38.2238C34.6565 38.2238 33.7944 37.3617 33.7944 36.308V31.9291C33.7944 30.8755 34.6565 30.0134 35.7101 30.0134Z" fill="#05CD99"/>
</g>
<defs>
<clipPath id="clip0_12_602">
<rect width="32.8417" height="32.8417" fill="white" transform="translate(11.6265 12.2241)"/>
</clipPath>
</defs>
</svg>
